<svg width="121" height="30" viewBox="0 0 121 30" fill="none" xmlns="http://www.w3.org/2000/svg">
<path d="M8.71844 9.76282H5.91815V22.4363H1.81875V9.76282H0V6.44288H1.81875V5.63455C1.81875 3.67146 2.37688 2.22801 3.49315 1.3042C4.60942 0.380391 6.29345 -0.0526438 8.54523 0.0050946V3.41164C7.56368 3.39239 6.88045 3.55598 6.49553 3.90241C6.11061 4.24884 5.91815 4.87433 5.91815 5.7789V6.44288H8.71844V9.76282Z" fill="#05B851"/>
<path d="M9.72096 14.3819C9.72096 12.7652 10.0385 11.3314 10.6736 10.0804C11.328 8.82939 12.2037 7.86709 13.3007 7.19348C14.417 6.51987 15.6584 6.18306 17.0248 6.18306C18.2181 6.18306 19.2574 6.42364 20.1427 6.90479C21.0472 7.38594 21.769 7.99219 22.3079 8.72354V6.44288H26.3784V22.4363H22.3079V20.0979C21.7882 20.8485 21.0665 21.474 20.1427 21.9744C19.2381 22.4556 18.1892 22.6961 16.996 22.6961C15.6487 22.6961 14.417 22.3497 13.3007 21.6569C12.2037 20.964 11.328 19.9921 10.6736 18.7411C10.0385 17.4708 9.72096 16.0178 9.72096 14.3819ZM22.3079 14.4396C22.3079 13.4581 22.1154 12.6209 21.7305 11.928C21.3456 11.2159 20.8259 10.677 20.1715 10.3113C19.5172 9.92641 18.8147 9.73395 18.0641 9.73395C17.3135 9.73395 16.6207 9.91679 15.9855 10.2825C15.3504 10.6481 14.8308 11.187 14.4266 11.8991C14.0417 12.592 13.8492 13.4196 13.8492 14.3819C13.8492 15.3442 14.0417 16.191 14.4266 16.9223C14.8308 17.6344 15.3504 18.183 15.9855 18.5679C16.6399 18.9528 17.3328 19.1453 18.0641 19.1453C18.8147 19.1453 19.5172 18.9624 20.1715 18.5967C20.8259 18.2118 21.3456 17.6729 21.7305 16.9801C22.1154 16.268 22.3079 15.4211 22.3079 14.4396Z" fill="#05B851"/>
<path d="M47.6138 14.3819C47.6138 12.7652 47.9314 11.3314 48.5665 10.0804C49.2208 8.82939 50.0965 7.86709 51.1936 7.19348C52.3098 6.51987 53.5512 6.18306 54.9177 6.18306C56.1109 6.18306 57.1502 6.42364 58.0355 6.90479C58.9401 7.38594 59.6618 7.99219 60.2007 8.72354V6.44288H64.2712V22.4363H60.2007V20.0979C59.681 20.8485 58.9593 21.474 58.0355 21.9744C57.131 22.4556 56.082 22.6961 54.8888 22.6961C53.5416 22.6961 52.3098 22.3497 51.1936 21.6569C50.0965 20.964 49.2208 19.9921 48.5665 18.7411C47.9314 17.4708 47.6138 16.0178 47.6138 14.3819ZM60.2007 14.4396C60.2007 13.4581 60.0082 12.6209 59.6233 11.928C59.2384 11.2159 58.7188 10.677 58.0644 10.3113C57.41 9.92641 56.7075 9.73395 55.9569 9.73395C55.2063 9.73395 54.5135 9.91679 53.8784 10.2825C53.2433 10.6481 52.7236 11.187 52.3194 11.8991C51.9345 12.592 51.7421 13.4196 51.7421 14.3819C51.7421 15.3442 51.9345 16.191 52.3194 16.9223C52.7236 17.6344 53.2433 18.183 53.8784 18.5679C54.5327 18.9528 55.2256 19.1453 55.9569 19.1453C56.7075 19.1453 57.41 18.9624 58.0644 18.5967C58.7188 18.2118 59.2384 17.6729 59.6233 16.9801C60.0082 16.268 60.2007 15.4211 60.2007 14.4396Z" fill="#05B851"/>
<path d="M66.6019 14.3819C66.6019 12.7652 66.9195 11.3314 67.5546 10.0804C68.209 8.82939 69.0943 7.86709 70.2106 7.19348C71.3268 6.51987 72.5682 6.18306 73.9347 6.18306C74.974 6.18306 75.9651 6.41402 76.9082 6.87592C77.8512 7.31858 78.6018 7.9152 79.16 8.6658V1.07325H83.2594V22.4363H79.16V20.0691C78.6596 20.8581 77.9571 21.4933 77.0525 21.9744C76.148 22.4556 75.0991 22.6961 73.9058 22.6961C72.5586 22.6961 71.3268 22.3497 70.2106 21.6569C69.0943 20.964 68.209 19.9921 67.5546 18.7411C66.9195 17.4708 66.6019 16.0178 66.6019 14.3819ZM79.1888 14.4396C79.1888 13.4581 78.9964 12.6209 78.6115 11.928C78.2265 11.2159 77.7069 10.677 77.0525 10.3113C76.3982 9.92641 75.6957 9.73395 74.9451 9.73395C74.1945 9.73395 73.5016 9.91679 72.8665 10.2825C72.2314 10.6481 71.7118 11.187 71.3076 11.8991C70.9227 12.592 70.7302 13.4196 70.7302 14.3819C70.7302 15.3442 70.9227 16.191 71.3076 16.9223C71.7118 17.6344 72.2314 18.183 72.8665 18.5679C73.5209 18.9528 74.2137 19.1453 74.9451 19.1453C75.6957 19.1453 76.3982 18.9624 77.0525 18.5967C77.7069 18.2118 78.2265 17.6729 78.6115 16.9801C78.9964 16.268 79.1888 15.4211 79.1888 14.4396Z" fill="#05B851"/>
<path d="M85.5901 14.3819C85.5901 12.7652 85.9076 11.3314 86.5428 10.0804C87.1971 8.82939 88.0728 7.86709 89.1698 7.19348C90.2861 6.51987 91.5275 6.18306 92.8939 6.18306C94.0872 6.18306 95.1265 6.42364 96.0118 6.90479C96.9164 7.38594 97.6381 7.99219 98.177 8.72354V6.44288H102.248V22.4363H98.177V20.0979C97.6573 20.8485 96.9356 21.474 96.0118 21.9744C95.1072 22.4556 94.0583 22.6961 92.8651 22.6961C91.5179 22.6961 90.2861 22.3497 89.1698 21.6569C88.0728 20.964 87.1971 19.9921 86.5428 18.7411C85.9076 17.4708 85.5901 16.0178 85.5901 14.3819ZM98.177 14.4396C98.177 13.4581 97.9845 12.6209 97.5996 11.928C97.2147 11.2159 96.695 10.677 96.0407 10.3113C95.3863 9.92641 94.6838 9.73395 93.9332 9.73395C93.1826 9.73395 92.4898 9.91679 91.8547 10.2825C91.2195 10.6481 90.6999 11.187 90.2957 11.8991C89.9108 12.592 89.7184 13.4196 89.7184 14.3819C89.7184 15.3442 89.9108 16.191 90.2957 16.9223C90.6999 17.6344 91.2195 18.183 91.8547 18.5679C92.509 18.9528 93.2019 19.1453 93.9332 19.1453C94.6838 19.1453 95.3863 18.9624 96.0407 18.5967C96.695 18.2118 97.2147 17.6729 97.5996 16.9801C97.9845 16.268 98.177 15.4211 98.177 14.4396Z" fill="#05B851"/>
<path d="M120.918 6.44288L111.016 30H106.715L110.179 22.0322L103.77 6.44288H108.302L112.431 17.6152L116.617 6.44288H120.918Z" fill="#05B851"/>
<path fill-rule="evenodd" clip-rule="evenodd" d="M28.6949 8.8261V20.2266C28.6949 20.9473 28.9832 21.6681 29.5238 22.1246C29.8481 22.4009 30.2446 22.5811 30.7371 22.5811H42.7502C43.1947 22.5811 43.5912 22.4009 43.8434 22.2087C44.5282 21.7042 44.7805 21.0555 44.7925 20.2145C44.7925 20.1545 44.8045 20.1305 44.8045 20.0704V19.9743C44.7925 17.7879 44.8045 15.5775 44.8045 13.3791C44.2399 13.5713 43.6152 13.8116 43.2668 13.9917C43.2308 14.0038 43.1947 14.0158 43.1587 14.0398V17.848C43.1587 18.0642 43.1467 18.2564 43.1467 18.4606C43.1467 18.8691 43.1467 19.2895 43.1467 19.71C43.1467 20.5149 43.2067 20.9353 42.534 20.9714C42.4259 20.9714 42.3298 20.9594 42.2337 20.9714C41.9814 21.0074 32.9355 20.9834 32.6832 20.9834C32.431 20.9834 32.2147 20.9714 31.9745 20.9714C31.6381 20.9714 30.8813 21.0074 30.617 20.8873C30.4488 20.8152 30.3527 20.647 30.3527 20.4188C30.3527 20.3587 30.3407 20.3347 30.3407 20.2626C30.3407 20.2025 30.3407 20.1425 30.3407 20.0824C30.3407 19.9503 30.3287 19.8542 30.3287 19.734L30.3167 16.07C30.3167 15.5535 30.3287 15.0729 30.3287 14.5684V12.3099C30.3287 12.0456 30.3407 11.8294 30.3407 11.5651V9.30663C30.3407 9.03033 30.3167 8.50175 30.5089 8.33357C30.6771 8.1774 30.8813 8.1774 31.1095 8.1774C31.1936 8.1774 31.2176 8.16538 31.2897 8.16538C34.305 8.12934 37.4044 8.16538 40.4077 8.16538C40.7801 8.16538 42.4139 8.14136 42.7022 8.20142C42.9304 8.24947 43.0746 8.35759 43.1227 8.58584C43.1587 8.81409 43.1227 9.09039 43.1467 9.33066C43.1707 9.57092 43.1587 9.85923 43.1587 10.1115C43.1587 10.3878 43.1707 10.6161 43.1707 10.8803V11.5291C43.6753 11.3248 44.2038 11.1326 44.7204 10.9885L44.8045 10.9524V9.27059C44.8045 8.65792 44.7324 8.00921 44.4081 7.51667C44.372 7.4446 44.324 7.39654 44.2759 7.32446C43.9155 6.86797 43.1947 6.5316 42.5941 6.5316H30.9293C30.629 6.5316 30.2806 6.6277 30.0043 6.73582C29.1754 7.0842 28.6949 7.91311 28.6949 8.8261Z" fill="#05B851"/>
<path fill-rule="evenodd" clip-rule="evenodd" d="M37.4043 15.3368C37.3202 15.2767 37.092 15.0364 37.0079 14.9403C36.8037 14.7481 36.5994 14.5559 36.3712 14.3997L36.2511 14.3157C36.215 14.2916 36.167 14.2676 36.1309 14.2436C36.0949 14.2075 36.0468 14.1835 36.0108 14.1595C35.4942 13.9072 34.9897 13.727 34.401 13.5708C33.8845 13.4507 33.2958 13.3066 32.7432 13.3666C32.6832 13.3786 32.6231 13.3906 32.563 13.4027C32.563 13.6069 32.551 13.7631 32.551 13.9673C32.551 14.1475 32.527 14.3517 32.527 14.5319C32.527 14.9163 32.491 15.2887 32.491 15.6731C32.539 15.6731 32.539 15.6611 32.5991 15.6611C33.3319 15.6611 33.6442 15.6731 34.3049 15.9254C34.7134 16.0696 35.0858 16.3098 35.4101 16.5861C35.4342 16.6102 35.4462 16.6222 35.4702 16.6462C35.5903 16.7303 35.7105 16.8624 35.8066 16.9706L35.9147 17.1027C36.203 17.4511 36.4192 17.7634 36.6355 18.1599C36.8517 18.5683 37.0199 18.9888 37.1641 19.4212C37.1761 19.4813 37.2001 19.5654 37.2241 19.6134C37.2962 19.5774 37.4043 19.5534 37.4884 19.5294L38.3053 19.2651C38.4014 19.229 38.4855 19.205 38.5696 19.181L39.1222 19.0008C39.2063 18.9767 39.3264 18.9527 39.3985 18.9167C39.3985 18.8806 39.3865 18.8326 39.3865 18.7845C39.3625 18.5803 39.3264 18.3521 39.3264 18.1358C39.3264 18.0758 39.3144 18.0638 39.3144 18.0037C39.2904 17.331 39.3504 16.7423 39.5667 16.1056C39.6988 15.6972 39.9031 15.3368 40.1433 14.9884L40.3115 14.7601C40.4557 14.592 40.7199 14.2916 40.8881 14.1595C41.0563 14.0153 41.2245 13.8712 41.4047 13.727L41.645 13.5588C41.8131 13.4387 41.9813 13.3306 42.1615 13.2345C42.3898 13.0903 42.7381 12.8861 42.9904 12.79C43.0385 12.766 43.0745 12.7419 43.1226 12.7179C43.1706 12.6939 43.2187 12.6819 43.2667 12.6578C43.8434 12.3695 45.1408 11.913 45.7414 11.7448L46.3901 11.5526C46.4983 11.5166 46.6064 11.4806 46.7265 11.4565C46.6905 11.3965 46.4622 10.4354 46.4382 10.3393L46.222 9.51041C46.1979 9.42631 46.1859 9.30618 46.1499 9.2341C46.0057 9.24612 44.8525 9.60651 44.7203 9.65456C44.0956 9.83476 43.4469 10.075 42.8463 10.3273C42.7862 10.3513 42.7381 10.3754 42.6781 10.3994L42.1976 10.6036C42.1495 10.6396 42.1015 10.6637 42.0414 10.6877C41.9333 10.7237 41.8251 10.7838 41.729 10.8319C41.4287 11 41.1284 11.1562 40.8401 11.3484C40.4677 11.5887 40.1073 11.841 39.7589 12.1173C39.6388 12.2254 39.5066 12.3215 39.3865 12.4416C39.3504 12.4897 39.3144 12.5137 39.2664 12.5497C39.0741 12.7419 38.8699 12.9341 38.7017 13.1504L38.4014 13.5348C38.053 13.9913 37.7647 14.4718 37.5365 14.9884C37.5004 15.0605 37.4043 15.2527 37.4043 15.3368Z" fill="#05B851"/>
</svg>
